<?xml version="1.0" encoding="utf-8"?>
<!-- Generator: Adobe Illustrator 21.1.0, SVG Export Plug-In . SVG Version: 6.00 Build 0)  -->
<svg version="1.1" id="Layer_1" xmlns="http://www.w3.org/2000/svg" xmlns:xlink="http://www.w3.org/1999/xlink" x="0px" y="0px"
	 viewBox="0 0 792 1224" style="enable-background:new 0 0 792 1224;" xml:space="preserve">
<style type="text/css">
	.st0{fill:#ADDA9F;}
</style>
<g>
	<g>
		<path class="st0" d="M635,850.5c-0.6,0-1.2,0-1.8,0c0-0.3,0-0.4,0-0.5c0.2-0.5,0.4-1,0.7-1.6c0,0-0.3-0.2-0.4-0.2
			c-0.7,0.3-1.8,0.1-2.1,1.2c-0.1,0.5,0,1-0.1,1.5c0,0.2-0.3,0.4-0.5,0.4c-0.2,0-0.4-0.2-0.5-0.4c-0.1-0.3,0-0.9-0.7-0.6
			c-0.5,0.2-1.3,0.2-1.7,0c-0.8-0.6-1.2-0.7-1.6,0.3c-0.1,0.2-0.6,0.2-0.9,0.3c-0.1-0.3-0.2-0.6-0.2-0.9c0-0.2,0.3-0.5,0.2-0.7
			c0-0.2-0.3-0.5-0.5-0.5c-0.2,0-0.5,0.1-0.6,0.3c-0.2,0.5-0.3,1.1-0.5,1.7c0,0.1-0.3,0.2-0.4,0.2c-0.1,0-0.3-0.2-0.3-0.3
			c0-0.3,0-0.7,0.1-1c0.3-0.7-0.2-0.9-0.7-1.1c-0.5-0.2-1.2-0.2-1.7-0.5c-1.9-1-3.3-0.4-4,1.6c-0.1,0.3-0.4,0.8-0.7,0.8
			c-1.3,0.3-2.7,0.4-4,0.6c-0.7,0.1-1.3,0.3-1.9,0.4c-1.1,0.3-2.1,0.7-3.4,0.2c-0.9-0.3-2.2,0.3-3.4,0.7c-0.9,0.3-1.5,0.2-2.1-0.7
			c-0.9-1.1-2.3-1.8-3.1-2.9c-0.7-1.1-0.5-2.7-1.3-3.8c-1.6-2.2-1.9-4.2-0.6-6.6c-0.3-1.6,1.1-2.9,0.7-4.6c-0.2-1,1-1.7,2.3-1.7
			c0.2,0,0.6,0,0.6,0c0.1-0.2,0.1-0.7,0-0.7c-1.1-0.3-0.7-1.9-2-2.1c-0.4-0.1-1.1-1.4-0.9-1.8c0.6-1.4-0.2-2.4-0.6-3.6
			c-0.2-0.6-0.5-1.1-0.5-1.7c-0.1-0.8-0.4-1.2-1.1-1.5c-0.6-0.3-1.1-0.8-1.5-1.3c-0.9-1-1.2-2.2-0.4-3.4c0.4-0.7,0.8-1.4,1.3-2.1
			c-0.2,0-0.4-0.1-0.5-0.1c-1.8,0.5-2.5-0.1-2.7-1.9c-0.2-2.4-0.8-4.6-2.4-6.5c-0.5-0.6-2.6-0.8-1.4-2.5c-1.1-1-2.1-2-3.2-3
			c-0.2-0.2-0.5-0.1-0.7-0.3c-1-0.6-1.1-1.1-0.6-2.3c0.4-0.9,0.4-0.9-0.8-1.6c-0.4-0.2-0.8-0.3-1.1-0.5c-0.2-0.1-0.4-0.3-0.5-0.5
			c-0.4-1.3-0.9-1.8-2-2.1c-0.2-0.1-0.5-0.1-0.7-0.3c-0.6-0.5-1-1.2-2.1-0.8c-0.4,0.1-1.2-0.5-1.6-1c-0.5-0.6-0.8-0.6-1.1,0
			c-0.2-0.2-0.7-0.3-0.7-0.5c0-0.7,0.1-1.3,0.2-2c0.3-1.5,0.3-2-0.6-3.6c-0.1,0.6-0.3,1-0.2,1.3c0.7,1.2,0,2-0.6,2.9
			c-0.3,0.5-0.8,0.5-0.9,0c-0.3-1.3-1.3-1.4-2.3-1.2c-0.7,0.1-1-0.1-0.7-0.8c0.2-0.5-0.1-0.6-0.4-0.6c-0.2,0-0.5-0.1-0.5-0.1
			c0.3-2.6-1.7-1.4-2.7-1.7c-0.3-0.1-0.5,0-0.7-0.4c-0.3-0.5-0.6-1.2-1.1-0.1c-0.1,0.1-0.5,0.1-0.7,0.1c-0.4-0.1-1.2-0.5-1.2-0.5
			c-0.5,0.7-1.4,1.3-1.2,2.3c0.3,1.3-0.4,2-1.3,3.1c-0.9-1.6-1.8-3-2.6-4.5c-0.6-1.2-1.6-2-1.9-3.5c-0.3-1.5-1.1-2.8-0.9-4.5
			c0.1-0.7-0.6-1.5-1-2.2c-0.2-0.4-0.9-0.8-0.9-1.2c0.1-1.7-1.1-3-1.5-4.5c-0.5-1.8-0.8-3.8-1.1-5.7c-0.2-1.1-0.4-2.1-0.5-3.2
			c-0.2-1.3-0.4-2.7-0.5-4c-0.3-3.8-1-7.5-2.2-11.1c-0.3-0.9-0.6-1.9-0.9-2.9c-0.1-0.3-0.3-0.7-0.5-0.8c-1.3-0.1-1.6-1.2-2-2
			c-0.7-1.6-1.8-2.8-3.4-3.6c-1-0.5-2-1-2.1-2.5c0-0.3-1.2-0.7-1.9-1c-1.3-0.5-1.3-0.5-1.1-1.8c0.3-1.3,0-1.8-1.3-2.5
			c-0.6-0.3-1.2-0.7-1.7-1.1c-1.1-0.8-1.4-1.7-0.8-3c0.3-0.7,0.2-1.2-0.4-2c-0.1,0.5,0,0.9-0.2,1.2c-0.3,0.6-0.9,1.1-0.9,1.6
			c0,0.6,0.6,1.2,0.9,1.7c0.1,0.2,0.4,0.5,0.3,0.7c-0.7,1.3,0.1,2.3,0.8,3.2c0.4,0.5,0,0.9-0.3,1c-1,0.3-2.1,0.5-3.2,0.7
			c-0.7,0.1-1-0.5-0.8-1.3c0.1-0.5,0.7-1.1-0.2-1.4c-0.3-1.9-1.3-3.6-1.3-5.6c0-2.4-0.8-4.6-2.1-6.6c-0.2-0.3-0.5-0.5-0.6-0.8
			c-0.3-0.7-2-0.5-1.5-1.6c0.3-0.7,0.5-1.3,0.7-2.1c0.1-0.7,1.2-0.8,1.8-0.4c0.4,0.3,0.8,0.8,1.2,0.8c1.8,0,1.9,1.3,2,2.6
			c0,0.6,0,1.2,0,1.8c0,0.8,0.7,0.9,1.2,1.1c0.7,0.4,0.7-0.5,1.1-0.7c0.8-0.3,0.4-0.7,0.2-1.2c-0.9-2.2-0.7-4.5-0.2-6.7
			c0.3-1.3,0.9-2.6,0.7-4c0-0.1,0-0.2,0-0.3c1.5-2.1,0.4-4.4,0.5-6.6c0.1-1.3-0.2-2.3-1.5-2.9c-0.3-0.1-0.6-0.3-0.8-0.6
			c-1.2-1.1-1-2.8,0.5-3.4c0.3-0.1,0.7-0.1,1-0.3c0.3-0.2,0.6-0.7,0.5-0.9c-0.2-0.4-0.8-1-1-0.9c-1.4,0.8-2.2-0.2-3.5-1.5
			c0.8,2.2-0.3,3.2-1.3,4.5c-0.8-0.4-1.6-0.9-2.4-1.3c-0.1,1.1-0.1,1,0.9,1.5c0.1,0,0.1,0.6,0,0.6c-0.6,0.3-0.6,0.6-0.4,1.2
			c0.7,2.7,1.3,5.4,1.3,8.2c0,0.4,0,0.9-0.1,1.3c-0.1,0.6-0.8,0.9-1.3,0.5c-0.1-0.1-0.3-0.2-0.4-0.3c-0.4-2-2-1.6-3.5-1.8
			c-1.3-0.1-2.6-0.6-3.6-1.6c-0.1-0.1-0.5-0.1-0.6,0c-0.1,0.1-0.2,0.5-0.2,0.7c0,0.2,0.2,0.5,0.3,0.7c2,2.1,1.7,4.6,1.6,7.1
			c0,0.3-0.5,0.5-0.8,0.8c-0.2-0.3-0.6-0.5-0.6-0.8c-0.2-1.5,0.2-3.1-0.5-4.5c-0.2-0.4-0.2-1-0.5-1.4c-0.4-0.6-1.2-1-0.6-1.9
			c0.1-0.1-0.1-0.3-0.2-0.5c-1.1-1.8-2.3-3.6-3.4-5.5c-0.8-1.3-1.6-2.6-2.3-3.9c-2-3.7-3.9-7.5-5.8-11.3c-0.6-1.2-0.9-2.5-1.4-3.8
			c-1.4-3.6-2.6-7.3-4.3-10.8c-0.7-1.6-1.3-3.5-3.3-4.3c-0.3-0.1-0.6-0.6-0.6-1c0-0.5,0.4-1.2,0.2-1.6c-0.8-1.4-1.7-2.6-2.6-3.9
			c-0.9-1.2-1.8-2.2-2.7-3.4c-0.9-1.2-1.7-2.5-2.8-3.6c-1.3-1.3-1.7-3-2.1-4.5c-0.6-2.1-1.6-3.8-2.8-5.6c-0.2-0.3-0.2-0.7-0.2-1.1
			c0.4,0,0.9-0.1,1.2,0c0.5,0.3,1.1,0.8,1.4,1.3c0.4,0.8,0.5,1.8,0.8,2.6c0.1,0.3,0.3,0.8,0.4,0.8c0.8-0.2,0-0.6,0.1-0.9
			c0.1-1.5,0.6-2.2,2.2-2.5c0.9-0.2,1.1-1.2,1.7-1.4c0.9-0.2,0.7-0.6,0.8-1.3c0.2-1.4,1.4-2.3,2.4-3.2c0.5-0.5,1-0.9,1.3-1.4
			c1.1-2,2-4.1,3.1-6.1c0.8-1.6,2-2.7,3.5-3.6c0.9-0.6,1.7-1.2,1.1-2.5c-0.1-0.2,0.1-0.6,0.3-0.8c0.4-0.3,0.9-0.5,1.4-0.7
			c0.3-0.1,0.8-0.1,1-0.3c1.1-1.2,2.3-2.3,3-3.7c0.7-1.4,1.2-3,0.3-4.6c-0.2-0.3-0.1-0.8-0.1-1.3c-0.1-2-1.3-3-3-3.2
			c-1.4-0.2-1.6-1-1.6-2c-1.4,1-1.4,1-1.1,2.4c0.3,1.5,0.1,3,1.1,4.3c0.1,0.2,0.1,0.5,0.1,0.7c-0.1,0.6-0.1,1.6-0.5,1.8
			c-0.6,0.3-1.5,0.5-2-0.3c-0.3-0.4-0.6-0.4-1-0.3c-1.8,0.2-3.2-1.2-3.1-3.1c0-0.2,0.1-0.3,0.2-0.5c0.4-0.5,1.2-1,1.2-1.4
			c-0.2-2.1,0.5-4.4-1-6.3c-0.3-0.4-0.7-1-1.2-0.4c-0.5,0.6-0.7,0.7-0.7-0.2c0-0.5,0-1-0.7-1.1c-1.5-0.1-2.6-1.1-3.6-2.1
			c-0.7-0.7-0.8-0.2-1.8-0.3c-1.8-0.2-1.7,1.1-1.9,1.9c-0.3,1.1-0.6,2-2,2.3c-0.8,0.2-0.9,1-0.1,1.6c1.3,0.9,2.8,1.7,4.4,2.1
			c0.4,0.1,1.1,0.3,1.2,0.6c0.4,1.8,1.7,2.2,3.3,2.2c0.2,0,0.4,0.2,0.6,0.3c-0.2,0.2-0.3,0.6-0.5,0.7c-0.8,0.2-1,0.5-0.5,1.2
			c0.1,0.2,0.2,0.5,0.3,0.7c0.5,1.1,0.8,2,0,3.2c-0.6,0.9-0.4,2.5-2,2.8c-0.1,0-0.1,0.2-0.1,0.2c0.8,1.2-0.4,2.3-0.2,3.4
			c0.4,1.5-0.6,2.6-1.2,3.7c-0.2,0.3-0.9,0.6-1.3,0.5c-1-0.3-1.9-0.3-2.9,0c-0.1,0-0.3-0.4-0.5-0.7c1.4-0.5-0.5-1.5,0.3-2.2
			c0,0-0.2-0.5-0.3-0.6c-1-0.5-1.9-0.9-3.1-1.5c0.1,0.6,0.1,1.2,0.4,1.5c1.2,1,0.6,2.8,1.9,3.7c-0.1,0.9-0.3,1.8-0.4,2.7
			c0,0.1-0.7,0.1-0.8,0c-0.7-0.8-1.2-1.7-1-2.8c0.1-1.3-0.3-2.3-0.9-3.4c-1.3-2.4-2.6-4.7-4.6-6.6c-2.2-2.1-3.5-4.8-3.1-8
			c0.2-1.5,0.6-3,1.2-4.4c0.7-1.6,0.7-3.2,0.8-4.8c0-0.7-0.1-1.4,0-2c0.4-1.4,0.9-2.8-0.5-4c-0.2-0.2-0.1-0.7,0-1
			c0.1-0.4,0.5-1,0.7-0.9c0.5,0.1,0.9,0.5,0.7,1.1c0,0.1-0.1,0.2-0.1,0.2c1.4,2.6,0.5,5.3,0.3,8c0,0.2,0.1,0.5,0.2,0.7
			c0.1,0.1,0.3,0.2,0.4,0.3c0.5-2.6,1.1-5.2,1.6-7.8c0.1-0.6,0-1.2-0.1-1.9c0-0.3-0.2-0.7-0.1-1c0.9-2.2,0.1-4.2-0.7-6.2
			c-0.7-1.8,0.5-2.9,1-4.3c1.2,0,1.4-1.3,2.2-1.9c0.7-0.5,0.9-1.2-0.1-1.8c-0.5-0.3-0.4-0.7,0-1.1c1.3-1.2,1.7-2.7,1.6-4.3
			c0-1.1,0.4-1.9,0.9-2.8c0.5-0.9,0.9-2,1.1-3c0.2-0.7,0.1-1.5,0.1-2.3c0-0.7,1.3-0.7,0.6-1.7c-0.1-0.1,0.5-0.8,0.9-1
			c1.1-0.9,1.2-0.9,0.6-2.3c-0.3-0.8-0.5-1.3,0.5-1.8c0.3-0.1,0.6-1.1,0.4-1.3c-0.7-1.1,0.1-2.1,0.1-3.2c0-0.4,0.4-0.8,0.6-1.3
			c0.1-0.2,0.4-0.4,0.4-0.6c-0.4-1.8,0.3-3.6-0.2-5.4c-0.7-2.5-0.9-4.8,0.8-7c0.2-0.3,0-2.9-0.2-3.1c-0.1-0.1-0.4-0.2-0.4-0.1
			c-1.2,0.8-1.6,0-2-1c-0.3-0.7-0.4-1.1,0.5-1.2c0.3,0,0.5-0.3,0.7-0.6c0.2-0.2,0.2-0.5,0.3-0.6c-0.7-0.3-1.6-0.4-2-0.9
			c-0.4-0.5-0.4-1.5-0.2-2.2c0.2-0.8-0.1-0.7-0.6-0.9c-1.1-0.4-1.1-0.7-0.2-1.5c0.8-0.7,0.8-0.9-0.3-1.3c-1.2-0.4-1.4-1.2-0.6-1.9
			c0.5-0.4,1.1-0.8,1.6-1.2c1.4-1.2,1.4-1.2,3,0.1c-0.1-1,0-2-0.2-2.9c-0.1-0.4-0.8-0.7-1.3-0.8c-0.7-0.3-1.5-0.3-1-1.5
			c0.1-0.2-0.6-0.8-1-1.2c-1.6-1.2-2.5-3.5-2.2-5.5c-0.6,0-1.2,0-1.7-0.1c-0.6-0.1-0.9-1-0.6-1.6c1-2.5,0.9-2.7-0.9-4.5
			c-0.7-0.8-1.3-1.5-2.4-1.7c-0.4-0.1-0.9-0.8-1.1-1.3c-0.4-0.7,0.1-1.3,1-1.5c0.2-0.1,0.5-0.1,0.5-0.1c-0.2-1-0.5-1.9-0.6-2.9
			c-0.1-0.9-0.4-1.3-1.3-0.9c-0.1,0-0.2,0.1-0.2,0.1c-2-1.2-4.3,0-6.3-1c-0.9-0.5-2.2-0.4-3.2-0.2c-1,0.2-1.9-1.2-2.9-0.2
			c-0.8,0.9-1.8-0.3-2.6,0.1c-0.3,0.2-0.7,0.4-0.8,0.7c-0.2,0.8,0.5,0.3,0.8,0.4c0.4,0.2,0.7,0.6,0.3,1c-0.6,0.6-1.2,1.1-1.8,1.6
			c-0.1,0.1-0.7-0.3-0.7-0.5c-0.1-0.6-0.2-1.2-0.1-1.7c0.3-1.7,0.1-3.1-1.4-4.1c-0.3-0.2-0.6-0.8-0.6-1.2c0-1.1,0-2.2,0.2-3.3
			c0.2-0.7,0.1-1.1-0.4-1.5c-1-0.8-2.2-1-3.2-1.9c-0.3-0.3-1.2-0.1-1.8,0.1c-0.7,0.2-0.9,0-1-0.6c-0.1-0.6-0.3-1.1-0.5-1.7
			c-0.1-0.4-0.6-0.8,0.1-1.3c0.2-0.1,0-1.4-0.4-1.8c-1.4-1.5-2.1-3.2-2.6-5.1c-0.2-0.8-0.8-1.5-1.3-2.1c-0.5-0.7-1.1-1.2-2.1-1
			c-1.7,0.2-2.8-0.5-3.6-2.1c-0.9-1.9-2.9-2.7-4.4-3.9c-1.5,0.2-1.6-1.6-2.8-2c-0.1,0-0.2-0.4-0.2-0.6c-0.2-1.3-0.5-2.6-0.6-3.9
			c-0.1-1.1-0.1-2.2,0.1-3.2c0.3-1.6,0.3-3.1-0.2-4.7c-0.3-1.3-1.2-1.9-2.1-1.8c-2,0.1-3.1-0.9-4-2.4c-0.4-0.8-1-0.8-1.6-1
			c-1.8-0.6-3.3-1.5-4-3.5c-0.1-0.3-0.5-0.8-0.8-0.9c-1-0.1-1-0.9-0.9-1.5c0.4-1.9-0.5-3.4-1.5-4.8c-1.1-1.5-2-3.1-2.7-4.9
			c-0.1-0.4-0.3-0.8-0.6-1.1c-1.3-1.2-2.6-2.4-4-3.4c-1.3-1-2.8-1.8-4.2-2.8c-1.2-0.9-2.4-1.7-4.1-1.8c-0.8,0-1.7-0.3-2.3-1.4
			c-0.3-0.7-1.2-1.1-2-1.5c-2.4-1-4.4-2.5-6.2-4.3c-1-0.9-2.1-1.7-3.1-2.6c-0.4-0.4-0.5-1.4-1-1.5c-0.5-0.2-1.3,0.1-2,0.2
			c-2.2,0.4-4.5,0.7-6.7,1.1c-0.2,0-0.4,0.2-0.6,0.4c-0.6,0.3-1.1,0.7-1.7,0.9c-1.8,0.6-2.2,0.4-2.7-1.6c-0.3,0.3-0.5,0.7-0.8,1
			c-0.2,0.1-0.8,0.1-0.8,0.1c-0.2-1.8-1-0.1-1.5-0.2c-0.8-0.2-0.8,1.5-1.9,0.7c-0.2,0.2-0.4,0.4-0.4,0.6c-0.5,1.9-1.6,2.2-3,0.9
			c-0.3-0.3-0.6-0.6-0.9-0.9c-0.2-0.1-0.5-0.2-0.6-0.1c-0.8,0.3-1.5,0.6-2.3,0.9c-0.1,0-0.1,0.3-0.2,0.4c0.1,0,0.3,0.1,0.4,0.1
			c0.8-0.4,1.7,0.2,1.7,0.5c0.1,0.7-0.4,1.4-0.7,2c-0.1,0.3-0.5,0.4-0.7,0.7c-0.3,0.3-1.3-0.2-1,0.7c0.3,0.7-0.2,1.6,0.7,2
			c0.4,0.2,0.7,0.5,0.9,0.9c0.2,0.5,0.2,1.1-0.5,1.1c-0.7,0-1.5-0.2-2.2-0.4c-1.1-0.3-2.2-0.7-3.4-1c-0.2,0-0.4-0.1-0.5,0
			c-0.2,0.2-0.3,0.5-0.4,0.8c0,0.1,0.3,0.3,0.4,0.3c1.6,0.3,3.3,0.5,4.9,0.8c1.5,0.3,2.5,1.9,2.3,3.4c-0.3,2.4-2.6,3.7-4.9,2.8
			c-0.8-0.3-1.6-0.5-2.4-0.8c-0.1,0-0.2-0.3-0.2-0.4c0-0.1,0.2-0.4,0.2-0.4c0.7,0,1.3,0,2,0.1c0.5,0.1,0.9,0.2,1.6-0.1
			c-0.8-0.3-1.5-0.8-2.3-1c-1-0.3-2-0.6-3-0.4c-0.8,0.1-1.6,0.7-2.4,1.3c-0.5,0.4-0.8,0.7-1.5,0.3c-1.1-0.5-2.1-0.3-3,0.5
			c-1,0.8-2.3,1.4-3.5,2.1c-0.7,0.4-1.4,0.9-2,1.5c-1.1,1.2-3,1.6-3.9,3.2c-1.7-0.3-2.9,0.9-4,1.8c-2.1,1.6-4.2,3-6.6,4.3
			c-0.8,0.4-1.6,0.9-2.5,1.2c-1.4,0.5-2.7,1.2-3.5,2.4c-0.4,0.7-0.8,0.5-1.2,0.2c-1-0.6-2-0.2-3.1-0.3c-0.1,0-0.2,0.1-0.2,0.1
			c-0.9,0.7-1.9-0.5-3,0.3c-0.8,0.6-2,0.8-3,1.2c-0.5,0.1-1,0.3-1.5,0.2c-3.2-0.9-6.3-0.6-9.3,0.9c-1.2,0.6-2.7,0.6-4.1,0.9
			c2.6,0.5,5.1,0.5,7.2-0.4c0.8-0.4,1.3,0.1,1.9,0.3c2,0.8,2.3,1.5,1.5,3.6c-0.8,1.9-0.7,2,1.1,3.1c0.5,0.3,1.1,0.6,1.6,0.8
			c0.9,0.5,1.7,0.7,2.8-0.1c1.1-0.9,2.5-1.3,3.8-1.9c0.3-0.1,0.8-0.2,0.9-0.4c1-2.1,3.3-2.2,4.9-3.2c1.2-0.7,2.6-1.1,4-1.5
			c1.5-0.5,2.5-1.4,3.5-2.5c0.3-0.3,0.5-0.7,0.9-0.9c1.8-0.9,3-2.3,4.3-3.8c0.2-0.2,0.7-0.1,1-0.2c0,0.3,0.1,0.8,0,1
			c-2.8,3.4-5.4,7.1-10.3,8c-1.1,0.2-2.2,0.9-3.1,1.5c-3.1,2.2-6.5,3.7-9.9,5.5c-0.7,0.4-1.6,0.5-2.4,0.6c-0.5,0-1.3-0.3-1.5-0.7
			c-0.6-1.3-2-1.5-2.8-2.5c-0.2-0.2-0.6-0.4-0.9-0.3c-1.7,0.3-2.9-0.7-4-1.7c-3.7-3.4-8-4-12.7-2.9c-0.1,0-0.2,0-0.3,0
			c-0.8,0.2-1.3,1.5-2.2,0.8c-0.6-0.5-0.7-1.5-1.1-2.2c-1.9-3.5-2.5-7.5-3.3-11.3c-0.4-1.8,0.1-3.5,1-5.1c0.2-0.3,0.7-0.6,1-0.5
			c0.3,0.1,0.4,0.6,0.5,1c0.1,0.2,0,0.5-0.1,0.7c-1.5,2.4-0.8,4.9-0.3,7.4c0.3,1.4,0.6,2.8,1.1,4.1c0.5,1.2,1.2,2.4,1.8,3.6
			c0,0.1,0.1,0.1,0.2,0.2c0.7,0.4,2.9-0.7,3.1-1.6c0.7-2.8,0.6-5.7,0.5-8.6c0-1.3-0.5-2.6-1.5-3.6c-0.5-0.5-1.1-1.2-1.3-1.9
			c-0.5-2-1.9-3.6-3-5.2c-1-1.5-2.4-2.5-4.3-2.8c-4.2-0.7-7.2-3-9.4-6.6c-1.1-1.8-2.3-3.5-4.3-4.5c-0.3-0.2-0.6-0.4-0.9-0.5
			c-3.4-1-6.2-2.8-8.6-5.4c-2-2.2-4.5-3.8-7-5.4c-1.2-0.7-2.1-1.6-3.2-2.4c-0.8-0.5-1.5-1.1-2.4-1.4c-2.8-1-5.2-2.7-7.8-4.2
			c-0.3-0.2-0.6-0.4-0.9-0.4c-2.5,0-4.3-1.8-6.6-2.4c-2.3-0.6-4.4-1.7-6.6-2.4c-3.4-1.1-6.7-2.1-10.1-3c-1.2-0.3-2.5-0.5-3.7-0.6
			c-1.5-0.2-3-0.6-4.5-0.4c-1.5,0.2-3-0.1-4.4-0.1c-2-0.1-4-0.2-6-0.6c-3.1-0.5-8.6-0.5-11.6,0c-2,0.3-4,0.4-6,0.6
			c-0.9,0.1-1.8,0.3-2.7,0.5c-4.4,0.9-8.7,1.7-13.1,2.6c-3.2,0.7-6.4,1.5-9.5,2.3c-3.2,0.8-6.5,0.9-9.8,0.7c-0.3,0-0.6-0.2-0.9-0.4
			c-0.2-0.1-0.3-0.4-0.3-0.6c0-0.2,0.3-0.4,0.5-0.5c0.6-0.1,1.2-0.2,1.8,0c2.5,0.7,4.8,0,7.1-0.5c2-0.4,4-0.7,5.9-1.1
			c0.9-0.2,1.7-0.8,2.5-0.9c2.1-0.4,4.2-0.4,6.3-1c1-0.3,2.2-0.2,3.2-0.6c3.1-1,6.5-1,9.6-1.8c1.1-0.3,2.3-0.2,3.5-0.4
			c-1.2-0.4-2.4-0.4-3.5-0.2c-3.1,0.6-6.3,0.8-9.4,1c-0.6,0-1.2,0.2-1.7,0.4c-1.4,0.4-2.8,0.6-4.2,0.7c-2,0.1-4,0.4-5.9,1
			c-2.1,0.6-4.4,0.7-6.1,2.2c-0.2,0.2-0.8,0-1.1-0.2c-0.5-0.3-1-0.7-1.3-1c0.6-1.6,1.6-1.8,2.8-1.7c1,0.1,1.8-0.2,2.7-0.9
			c1.5-1.2,3.4-1.9,5.5-1.7c2.2,0.2,3.9-0.7,5.6-2c1.2-0.9,2.4-1.9,3.6-2.9c-2-1.4-4-2.8-6.2-4.3c0.4-0.9,1-1.8,1.2-2.8
			c0.1-0.8,1.6-1.5,0.4-2.5c-0.2,0.3-0.4,0.8-0.7,1c-1.9,1-2.1,2.9-2.6,4.6c-0.4,1.4-0.7,2.8-1.2,4.1c-0.2,0.6-0.7,1.2-1.3,1.4
			c-0.5,0.3-1.2,0.2-1.9,0.2c0-0.6-0.3-1.2-0.1-1.7c0.4-1.1,0.4-2.1,0.1-3.2c-0.1-0.2-0.3-0.6-0.2-0.7c0.8-1.2-0.1-1.7-0.9-2.2
			c-0.7-0.5-1.7-0.7-1-1.9c-1.2-0.7-1.5-2.1-2.4-3.1c-0.2-0.2-0.8-0.1-1.1-0.1c-0.1,0-0.2,0.5-0.1,0.5c1.3,0.8,0.8,1.8,0.2,2.7
			c-0.6,0.9,0,1.4,0.5,1.7c1.1,0.6,1.6,1.7,1.6,2.7c0,1.2-0.5,2.4-0.8,3.6c-0.1,0.5-0.6,0.9-0.6,1.4c0.1,1.2-0.6,1.8-1.6,2.3
			c-0.4,0.2-0.7,0.5-0.9,0.9c-0.3,0.6-0.8,0.8-1.4,0.8c-2.4,0.3-2.6,0.6-2.9,2.9c-0.2,1.8-0.6,2.1-2.3,2.2c-1,0-1.9-0.1-1.8,1.4
			c0,0.4-0.5,0.9-0.9,1.1c-1,0.4-2.1,1-3.1,1c-2.2,0-4.3,0.8-6.4,1.2c-2.1,0.4-4.2,1.1-6.3,1.6c-0.3,0.1-0.7,0.2-0.9,0.1
			c-0.4-0.1-0.7-0.4-1.2-0.6c1.7-1.4,3.6-1.8,5.5-2.5c-0.3-0.1-0.5-0.2-0.7-0.3c-0.2-0.1-0.3-0.1-0.5-0.2c0.5-0.7,1-1.7,1.9-1.2
			c1.6,0.8,2.3-0.1,3.2-1.1c0.9-1,0.9-1,0.1-2c-0.1-0.1-0.2-0.2-0.4-0.4c-0.2-0.2,0.8-4.3,1-4.2c1.7,0.6,2.7-1.1,4.1-1.1
			c0.7,0,1.5-0.2,1.4-1.1c0-1.1-1.1-2.1-2-1.9c-2.1,0.5-3.3-0.7-4.2-2.1c-0.7-1.1-1.2-2.7-1.2-4c0-1.3,0.5-2.7,1.3-3.8
			c0.8-1.2,1.7-2.3,1.6-3.8c0-0.2,0-0.4,0.1-0.5c1.1-1.1,0.9-2.4,0.6-3.8c-0.4-1.9-1.7-3-2.9-4.3c-0.2-0.3-0.8-0.2-1.2-0.3
			c-0.8-0.3-1.7-0.3-1.9-1.4c-0.1-0.3-0.6-0.5-0.9-0.7c-1.5-0.7-2.5-1.7-3.3-3.2c-0.8-1.4-1.3-3.2-2.7-4.3c-1.3-1-2.3-2.4-3.5-3.7
			c-0.2-0.2-0.6-0.3-0.6-0.4c0.2-1.5-1.3-2.8-0.3-4.4c0.5-0.9,0.8-1.9,1.1-2.8c0.8-2.2,1.4-4.5,1.1-6.9c-0.1-1,0.3-1.4,1.3-1.3
			c2.3,0,4.6,0,6.9,0c1.8,0,3.6-0.2,5.5-0.1c1.9,0.2,3.7,0.1,5.6,0.1c1.8,0,3.6,0,5.4,0c1.9,0,3.7,0,5.6,0c1.9,0,3.7,0,5.6,0
			c1.9,0,3.7,0,5.6,0c1.8,0,3.6,0,5.4,0c1.9,0,3.8-0.1,5.6,0c15.7,1,31.4,0.3,47.2,0.4c15.7,0.1,31.3,0,47,0c15.8,0,31.5,0,47.3,0
			c0.7,0,1.4-0.1,2,0c0.5,0,1.1-0.8,1.5,0.1c0,0.1-0.7,0.4-1.1,0.7c-0.6,0.6-0.6,1.2,0.1,1.7c0.3,0.3,0.8,0.4,1,0.7
			c0.2,0.3,0.5,0.7,0.5,1c-0.3,1.9,0.9,3.1,1.9,4.3c1.1,1.2,1.5,2.6,1.5,4.2c0,2,0.3,4,0.5,6c0.1,0.9,0.7,1.7,0.8,2.7
			c0.1,0.9,1.1,1.7,1.7,2.4c0.7,0.8,1.6,1.5,1.8,2.7c1,0.1,2-0.1,3.1,0c2.8,0.4,5.7,0.3,8.6,0.6c4.1,0.5,8.3,0.2,12.4,0.6
			c2.3,0.2,4.6,0.1,6.8,0.5c2.8,0.5,5.6,0.2,8.3,0.5c5.4,0.6,10.8,0.7,16.2,1.1c4.2,0.3,8.3-0.1,12.4,0.5c3.6,0.5,7.3-0.1,10.8,0.9
			c0.1,0,0.2,0,0.3,0c3.4,0.2,6.8,0.1,10.1,0.6c3.1,0.4,6.3,0,9.3,0.9c0.2,0,0.3,0,0.5,0c3.7,0.2,7.5,0.2,11.1,0.6
			c4.2,0.5,8.5,0.1,12.7,0.6c5,0.5,9.9,1,14.9,0.9c2.9,1.1,6,0.3,9,0.9c3.1,0.6,6.4,0.5,9.6,0.6c1.7,0.1,1.7,0,1.9-1.8
			c0-0.2,0.1-0.3,0.2-0.5c0.1,0.1,0.2,0.2,0.3,0.3c0.2,2.1,0.5,2.4,2.6,2.5c3.8,0.2,7.6,0.3,11.4,0.6c2.9,0.2,5.8,0.6,8.8,0.9
			c0.2,0,0.3,0,0.5,0c3.6,0.2,7.3,0.3,10.9,0.5c1.8,0.1,3.7,0.3,5.5,0.5c1,0.1,1.5,0.8,1.1,1.8c-0.7,1.8-0.2,3.1,1,4.4
			c0.2,0.2,0.6,0.5,0.6,0.8c-0.1,2.1,0.7,4.2,0.3,6.2c-0.3,1.7,0.8,4.9,2.3,5.8c0.5,0.3,1.3,0.3,1.9,0.2c1.2-0.4,2.3-0.4,3.5,0
			c0.6,0.2,1.3,0.2,2,0.2c1.6,0,2.2-0.7,2.3-2.3c0.2-2.1,0.2-4.2,1.3-6c0.2-0.4,0.2-1,0.2-1.5c0-1.6,0-3.2,0-4.9
			c0-0.5-0.1-1.1,0.1-1.5c1-2.5,0.4-4.8-1-7c-0.1-0.1-0.1-0.3-0.2-0.5c-1.4-2-1.4-4.1-0.7-6.4c0.3-0.9,0.5-2,0.1-2.7
			c-0.5-1.2-0.2-1.9,0.6-2.7c0.8-0.8,1.4-1.6,1.1-2.9c-0.1-0.4,0.2-1.2,0.4-1.3c0.5-0.1,1.1,0,1.6,0.3c0.3,0.1,0.5,0.6,0.8,1
			c0.8-0.8,1-1.7,1.2-2.7c0.3-1.7,0.8-2.1,2.4-1.5c0.9,0.3,1.4,0,2.2-0.2c0.7-0.2,1.4-0.1,1.6,0.7c0.6,2.1,2.6,2.6,4.2,2.6
			c1.9,0,2.5,0.9,3.1,2.3c0.1,0.2,0.2,0.4,0.4,0.7c0.5-0.3,1-0.7,1.5-0.7c0.4,0,0.7,0.5,1.1,0.8c0.6,0.4,1.3,1.1,1.9,1.1
			c1.1-0.1,2.3,0.4,3.3-0.5c0.7-0.7,1.3-0.4,1.6,0.3c0.4,0.9,1.1,1,1.9,1.4c1,0.5,1.8,0.6,2.9,0.4c0.4-0.1,0.8,0.2,1.2,0.3
			c1.2,0.3,2.4,0.7,3.7-0.2c0.9-0.6,2.3-0.5,3.3,0.5c0.4,0.4,1.1,0.6,1.8,0.8c0.4,0.1,0.8,0.1,1.2,0.3c2,0.6,2.4,1.1,2.1,3.1
			c-0.3,2.1-0.7,4.1-1.2,6.2c-0.4,1.9-0.6,3.8,0.1,5.7c0.1,0.2,0.1,0.5,0.1,0.8c0,2,0.6,3.8,1.7,5.5c0.2,0.3,0.3,0.8,0.3,1.2
			c0,2.4,0.1,4.7,0.9,7.1c0.5,1.4,0,3,0.1,4.6c0.1,1.3,0.3,2.5,0.5,3.7c0.6,3.7,1.6,7.4,2.5,11c0.9,3.9,1.4,7.9,2.2,11.9
			c0.4,1.8,1.1,3.5,1.5,5.3c0.6,2.7,1.1,5.4,1.6,8.1c0.1,0.4,0.3,0.8,0.5,1.1c1.1,1.1,1.5,2.5,1.4,3.9c-0.2,3.5,0.7,6.8,2,10.1
			c1,2.4,1.4,5,2.2,7.5c1.1,3.3,2.3,6.5,3.5,9.7c1.8,4.9,3.8,9.7,5.6,14.6c2.1,5.4,3.9,10.9,6.3,16.2c2,4.4,4.2,8.7,6.8,12.9
			c1.4,2.2,2.3,4.7,3.4,7c0.8,1.8,1.6,3.5,2.6,5.2c1.7,3.1,3.5,6.1,5.3,9.2c2.2,3.7,4.4,7.4,6.6,11c1.2,2,2.5,4,3.8,6
			c0.9,1.4,1.8,2.9,2.8,4.2c0.8,0.9,1.2,1.9,1.3,3c0.2,2,1,3.7,1.7,5.5c0.5,1.3,1,2.5,1.4,3.8c0.5,1.5,0,2.2-1.6,2.7
			c-0.4,0.1-0.8,0.3-1.1,0.5c-1.2,1.1-1.9,2.5-2.3,4.1c-0.7,3-0.5,6.1-0.6,9.1c-0.1,3.3,0.7,6.5,1.3,9.7c0.3,1.7,0.8,3.4,1,5.2
			c0.4,2.8,1.7,5.3,2.7,7.8c1,2.5,2.2,4.9,3.3,7.3c2.3,5,4.5,10,6.6,15c2,4.6,2.9,9.5,4.6,14.1c1.1,3.1,1.9,6.2,2.9,9.4
			c0.9,3.1,1.7,6.3,2.6,9.4c0.4,1.2,0.9,2.4,1.4,3.5c1.6,3.9,3.1,7.8,4.7,11.7c0.4,1,0.9,2,1.3,3c0.4,0.9,0.9,1.8,1.1,2.8
			c0.2,0.9-0.2,2,0.1,2.9c0.4,0.9,0.9,1.7,1.1,2.8c0.2,1,0.5,2.1,1.4,2.9c0.3,0.3,0.5,0.7,0.6,1.1c0.6,3,1.7,5.8,2.8,8.6
			c0.9,2.2,1.2,4.7,1.8,7.1c0.2,0.7,0.4,1.4,0.6,2.2c0.5,2.5,1.1,4.9,1.4,7.4c0.2,1.4-0.5,2.8-0.4,4.2c0.1,2.3,0.2,4.6,0,7
			c-0.2,1.8-0.1,3.6,0,5.4c0.1,3.5-0.4,6.9-1.3,10.2c-0.2,0.6-0.2,1.3-0.1,2c0.1,1,0.2,1,0,1.3c-0.2,0.5-0.5,0.9-0.5,1.4
			c-0.2,2.3-0.3,4.5-0.6,6.8c-0.4,2.9-0.3,5.9-0.9,8.8c-0.3,1.5-0.4,3.2-0.6,4.8c-0.5,4-1,8-1.5,12c0,0.2,0,0.3,0,0.5
			c-0.2,4.2-0.3,8.5-0.5,12.7c0,0.7-0.2,1.3-0.3,2c-0.1,0.5-0.2,1-0.1,1.5c1.2,3.8,0,7.5-0.7,11.2c-1.1,0.3-0.4,1.2-0.6,1.9
			c-0.2,0.6-0.2,1.3-0.3,2c-0.3,1.5-0.7,3.1-1,4.7c-1.9-0.8-1.6-2.3-1.5-3.6c0-0.5,0.8-0.9,0.8-1.4c0-0.5-0.7-0.9-0.8-1.4
			c-0.1-0.4,0.2-1.1,0.5-1.2c1.3-0.6,1.4-1.7,0.8-2.7c-0.5-0.9-0.3-1.4,0.4-2c0.8-0.6,0.8-1.5,0.8-2.3c0-0.5,0.1-1-0.6-1.2
			c-0.9-0.2-1.7,0.1-1.8,0.9c-0.3,1.5-0.6,3-0.5,4.5c0.1,2.1-0.8,3.6-2.6,4.5c-1.3,0.7-1.9,1.5-2.2,3.1c-0.3,1.9-1.3,3.8-2.1,5.7
			c-0.1,0.3-0.4,0.6-0.7,0.7c-1.9,0.4-1.9,1.9-1.6,3.2c0.4,2-0.2,3.5-1.3,5.1c-1.5,2.3-1.6,4.9-0.4,7.4c0.4,0.8,0.5,1.4,0.2,2.4
			c-0.3,0.9-0.3,2,1,2.6c0.6,0.2,0.6,0.9,0.3,1.3c-1.2,1.8-1.8,4-4.1,4.9c-1.2,0.5-0.4,1.4-0.3,2.1c0.2,1,0.7,0.4,1.2,0.5
			c2.2,0.3,3.2-1,4-2.6c0.8-1.7,2.3-3,2.6-5c0.1-0.3,0.5-0.7,0.8-0.9c1.6-1.1,2.5-2.6,3-4.4c0.3-1,0.7-2.1,1.1-3.1
			c0.3-0.7,0.6-1.3,0.1-2.1c-0.5-1,0.9-1.3,1-2.1c0.2,0.2,0.7,0.4,0.7,0.5c-0.2,1.3-0.3,2.6-0.7,3.9c-0.4,1.5-1,2.9-1.6,4.3
			c-0.4,1-1,1.9-1.5,2.9c-0.4,0.9-0.8,1.8-1.2,2.7c-0.2,0.6-0.2,1.4-0.6,1.9c-1.3,1.7-2.4,3.6-3.3,5.5c-1.3,2.6-2.8,5.1-4.3,7.7
			c-0.2,0.4-0.5,1-0.5,1.4c0.2,1.8-0.8,3.1-1.9,4.2c-0.9,0.9-1.1,2.6-2.9,2.6c-1,2.1-3.9,2.3-4.8,4.6c-0.6,1.6-1.7,2.7-3.1,3.8
			c-1.1,0.8-1.8,2.2-2.7,3.3c-0.6,0.8-1.1,1.4-2.2,1.5c-1.1,0.1-1.9,0.9-2.6,1.8c-0.9,1.1-2.1,1.9-3.2,2.9c-0.1,0.1-0.6,0.1-0.6,0
			c-0.1-0.2-0.1-0.5-0.1-0.7c0-0.1,0-0.2,0.1-0.2c2.2-1.3,3.2-3.8,5.2-5.2c0.1-0.1,0.3-0.1,0.5-0.2c2.2-1.2,2.6-1.6,2.9-4.3
			c0.1-0.5,0.2-0.4,0.6-0.4c1-0.1,1.8-0.5,2.4-1.5c0.9-1.3,2.2-2.3,3.3-3.5c0.1-0.1,0-0.4,0.1-0.7c-0.2,0-0.5-0.1-0.7,0
			c-0.3,0.1-0.5,0.5-0.8,0.6c-0.5,0.2-1,0.4-1.2-0.3c0-0.1,0.5-0.5,0.8-0.6c0.6-0.3,1.1-0.5,0.6-1.3c-0.1-0.1-0.1-0.3-0.1-0.5
			c0.1-0.5,0.2-1.5,0.4-1.5c1-0.1,0.6,0.8,0.6,1.3c0,0.8,0.4,1.2,1,1.2c0.4,0,0.8-0.3,1.2-0.6c0.5-0.4,0.3-0.9-0.1-1.3
			c-2-2-2.1-2.8-0.8-5.5c0.5-0.9,0-1.4-0.5-2c-0.5-0.5-0.9-0.4-1.5,0c-1.2,0.8-1.2,0.7-2.3-0.3c-0.8-0.8-1-0.8-1.8-0.1
			c-1.1,1-1.6,1.1-3.1,1.1c-0.6,0-1.1,0.6-1.8,0.9c0.6,0.5,1.1,0.7,1.3,1.1c0.1,0.2,0,0.8-0.2,1.1c-0.1,0.2-0.7,0.3-0.9,0.2
			c-0.4-0.2-0.8-0.7-1.1-1c-1-0.9-2-0.8-2.5,0.5c-0.2,0.5-0.1,1.2-0.1,1.8C635.4,850.2,635.2,850.4,635,850.5z M213.5,377.7
			c-0.4-0.3-0.6-0.5-0.8-0.6c-0.4-0.3-0.9-0.4-1.1-0.8c-0.2-0.2-0.1-0.7,0-1c0.3-0.8,1.5-0.9,2.3-0.4c0.6,0.4,1.1,1,1.7,1.4
			c0.9,0.6,1.4,2,2.9,1.2c0.1-0.1,0.5,0.3,0.7,0.5c0.4,0.3,0.7,0.7,1.1,0.9c0.9,0.2,1.8,0.3,3,0.4c-0.5-0.5-0.9-0.8-1-1.2
			c-0.2-0.5-0.1-1-0.2-1.5c-0.2-0.8-0.9-1-1.7-0.8c-1.1,0.4-1.3,0.2-1.2-0.8c0.1-1.5,0-1.7-1.2-2.2c-0.3-0.1-0.8-0.2-0.9-0.4
			c-0.7-1.7-2.2-1.4-3.6-1.8c-1.3-0.4-2.3,0-3.4,0.2c-0.6,0.1-1.3,0.6-1.7,0.4c-1.2-0.6-2.1,0-3,0.5c-0.7,0.3-1.4,0.4-2.2,0.6
			c-3.4,0.9-3.4,0.9-5.2-2c-0.3-0.5-0.6-0.6-1-0.3c-0.4,0.2-0.8,0.4-1,0.7c-0.9,1.6-2.5,2.2-4.2,2.6c-0.9,0.2-1.5,0.6-1.8,1.2
			c-0.5,0.9-1,1-1.8,0.6c-0.7-0.4-1,0.1-0.8,0.7c0.2,1,0.6,1.7,1.8,1.7c0.6,0,1.1,0.4,1.7,0.4c0.5,0,1.2-0.1,1.6-0.4
			c0.7-0.3,1.2-0.9,1.9-1.3c0.3-0.2,0.7-0.3,0.9-0.2c1.1,0.5,2.3,0.5,3.6,0.6c1.5,0.2,3.1,0.8,4.5,1.4c2,0.8,2.6,0.6,3.4-1.4
			c0.3-0.6,0.7-1.1,1.1-2c0.5,0.7,1,1.2,1.2,1.8c0.2,0.6,0.4,0.8,1,0.9C211.3,377.8,212.2,378.2,213.5,377.7z M601.4,831.5
			c0.4,1.5,0.7,3.1,1.1,4.6c0.1,0.2,0.4,0.3,0.5,0.5c0.1-0.2,0.2-0.4,0.3-0.6c0.3-0.3,0.7-0.7,0.8-0.7c0.6,0.2,1.4,0.6,1.5,1
			c0.2,0.7-0.1,1.5-0.4,2.2c-0.2,0.4-0.5,0.8,0.1,1c0.4,0.2,1.1,0.3,1.4,0.1c0.6-0.4,1.1-1.5,1.4-1.5c1.1,0.1,0.5,1.4,0.9,2.1
			c0,0.1,0.1,0.1,0.2,0.2c0.3,0.5,0.9,0.5,1.1-0.1c0.2-0.7,0.3-1,1.2-0.8c0.3,0.1,0.9-0.8,1.2-1.3c0.1-0.2-0.4-0.6-0.5-1
			c-0.3-0.9-1.9-1.2-1-2.5c0-0.1-0.2-0.4-0.3-0.4c-0.5,0-1.1,0-1.4,0.3c-0.6,0.4-0.8,0.3-1.5,0.1c-1.4-0.6-3.2-0.5-3.8-2.3
			c0-0.1-0.2-0.1-0.2-0.1C603,832.4,602.4,831.7,601.4,831.5z M251.3,396.7c2.3-0.7,3.5-2.1,4.2-4.1c0.2-0.6,0.9-1.3,0-1.7
			c-0.6-0.3-0.8,0.5-1.1,1.1c-0.2,0.5-0.8,0.8-1.2,1.1c-0.1,0.1-0.7-0.3-0.7-0.3c0.4-1.4-1-2.2-1.2-3.4c-0.3-1.5-1.1-1.7-2.5-1.1
			c-0.5,0.2-1,0.3-1.6,0.2c-2.4-0.6-3.4,0.3-3.4,2.7c0,0.3-0.1,0.6,0,0.8c0.2,0.4,0.5,0.8,0.9,1.1c0.6,0.4,0.6-0.3,0.8-0.6
			c1.2-1.7,3.2-1.8,4.5-0.2c0.2,0.2,0.4,0.7,0.3,0.9c-0.5,1,0.3,1.1,0.9,1.3c0.7,0.2,0.8,0.5,0.5,1.1
			C251.4,395.7,251.4,396.1,251.3,396.7z M654.5,837.7c0.1,1.3,0.3,2.2,0.3,3.2c0,0.3-0.5,0.6-0.8,0.9c-0.2-0.3-0.5-0.6-0.7-0.9
			c-0.2-0.3,0.3-1-0.5-0.8c-0.2,0-0.3,0.7-0.4,1c0,0.1,0.2,0.3,0.2,0.4c-0.5,1.5,0.5,2.5,1.4,3.3c1,0.8,1.7-0.4,2.6-0.9
			c0.1,0,0.1-0.1,0.2-0.1c1.5-0.5,1.6-1.9,2-3c0.3-0.8-0.4-1.8-1.3-2.1C656.7,838.4,655.8,838.1,654.5,837.7z M482.8,645.5
			c-0.2,0.2-0.4,0.4-0.5,0.6c1.4,1.3,2.8,2.6,4.2,4c0.4,0.4,0.9,1.1,0.9,1.7c-0.1,1.2,0.7,1.8,1.3,2.6c0.8,1.1,1.8,0.3,2.9,0.9
			c-0.5-1.2-0.8-2.1-1.1-3c-0.3-0.9-0.5-1.8-0.8-2.6c-0.5-1.3-1.3-2.2-2.8-2c-0.4,0-0.8-0.2-1.1-0.4
			C484.7,646.7,483.7,646.1,482.8,645.5z M269.8,410.6c0.1-0.1,0.3-0.2,0.4-0.3c-0.2-1.3-0.3-2.7-0.5-4.2c-1.3,0-2.8,0-2.6-2.1
			c0-0.3-0.8-0.9-1-0.8c-1.3,0.4-2.6,0.9-4.3,1.5c1.2,0.4,2,0.5,2.6,0.9c1,0.6,2.3,0.7,3.1,1.9C268.1,408.6,269,409.5,269.8,410.6z
			 M583,793.3c0.1-0.1,0.2-0.1,0.3-0.2c-0.3-0.9-0.4-2.1-1-2.6c-1.4-1.3-3.1-2.3-4.7-3.3c-0.9-0.6-2.8-0.3-3.3,0.6
			c-0.1,0.1,0,0.7,0.2,0.7c0.4,0.1,1,0.2,1.1,0.1c0.9-1.3,1.1-0.8,1.5,0.3c0.1,0.4,1,0.6,1.5,0.8c0.5,0.2,1.2,0.2,1.4,0.6
			c0.3,0.5,0.1,1.4,0.5,1.9c0.4,0.6,1.4-0.9,1.8,0.4C582.2,792.9,582.7,793.1,583,793.3z M547.4,713c-0.9,0.2-1.4,0.1-1.7,0.4
			c-1.1,0.9-2.2,1.8-3.3,2.7c-1.1,1-2.3,2-1.9,3.8c0.1,0.3-0.3,0.7-0.5,1.1c-0.3,0.7-0.6,1.3-0.9,2c-0.1,0.2,0.1,0.6,0.2,0.6
			c0.2,0.1,0.5,0,0.7-0.2c0.8-0.5,1-1.2,1-2.2c0-1.8,0.5-3.5,1.9-4.8C544.2,715.4,545.6,714.4,547.4,713z M253.2,398.9
			c0.6,1.3,1.1,2.1,0.1,2.9c-0.1,0.1-0.1,0.5,0,0.6c0.5,0.6,1,1.1,1.5,1.6c0.2,0.2,0.6,0.2,0.9,0.3c0-0.2,0.1-0.5,0.1-0.7
			c-0.1-1.4-0.1-1.4,1.4-2.5c0.1-0.1,0.1-0.6,0-0.7C255.9,400,254.8,399.6,253.2,398.9z M542.8,736.7c0.2,0.2,0.5,0.3,0.6,0.5
			c0.1,0.3,0.1,0.6,0.3,0.9c0.1,0.1,0.4,0.1,0.5,0.1c0.1,0,0.3-0.3,0.3-0.4c-0.4-1-0.8-2.1-1.2-3.1c-0.7,0.2-0.6,1.6-1.7,0.9
			c0,0-0.4,0.4-0.4,0.4c0.3,0.6,0.6,1.3,1.1,2.1C542.5,737.6,542.6,737.2,542.8,736.7z"/>
		<path class="st0" d="M560.9,898.6c0.4-0.8,1.5-1.5,0.6-2.7c-0.2-0.3,0.1-1.1,0.4-1.6c0.8-1.6,0.7-1.9-1.1-2.3
			c-1.1-0.3-2.1-0.7-2.7-1.7c-0.2-0.3,0.1-0.9,0.1-1.3c0.4,0.1,1,0.1,1.1,0.4c0.7,1.9,3,1.7,4.2,3c0.3,0.4,1.3,0.3,1.6-0.6
			c0.1-0.5,0.3-1,0.5-1.4c0.6-1,1.7-1,2.4-0.1c0.2,0.3,0.4,0.7,0.7,1c0.2-0.2,0.4-0.3,0.4-0.4c0.5-1.1,1.1-1.5,2.2-1.7
			c0.3-0.1,0.7-0.5,0.8-0.8c0.4-0.7,0.7-1.1,1.3-0.2c0.2,0.3,1.1-0.2,1.1-0.6c-0.2-1.2-0.4-2.5-0.5-3.7c0-0.2-0.2-0.3-0.2-0.5
			c0.1-0.3,0.3-0.6,0.4-0.8c0.3,0.2,0.9,0.4,0.9,0.6c0,1.6,0.8,2.9,1.4,4.3c0.4,0.9,1,1.5,2.1,1.8c0.3-1.2,0-2.2-1.1-2.9
			c-0.4-0.3-0.8-0.7-1.1-1c-0.6-0.5-0.6-0.9,0.1-1.4c0.3-0.2,0.5-0.6,0.8-0.9c0.2-0.2,0.4-0.4,0.6-0.7c0.2,0.3,0.5,0.5,0.5,0.8
			c0,0.7,0,0.9,0.9,0.8c1-0.1,1.5,0.8,1.4,1.9c-0.1,0.5-0.1,1.3,0,1.3c0.7,0.3,0.8,1.4,1.8,1.2c0.1,0,0.2,0,0.3,0
			c2.8,0.3,2.9,0.3,2.6,3.5c-0.9-0.7-1.7-1.3-2.5-2c-0.1,0.1-0.2,0.1-0.2,0.2c0.5,0.7,1,1.4,1.4,2.2c0.9,1.8,0.2,3-1.8,3.1
			c-0.2,0-0.5-0.2-0.6-0.4c-0.1-0.3,0-0.6,0.1-0.9c0.1-0.3,0.4-0.4,0.6-0.8c-1.4,0.7-3-0.2-4.3,0.9c-0.1,0.1-1-0.5-1.2-0.9
			c-0.2-0.4,0-1.1,0.3-1.4c0.8-0.7,0.4-1.1-0.2-1.6c-0.5-0.5-1-1.1-1.8-2.1c0.4,1.5,0.6,2.6,0.9,3.7c0.1,0.4,0.3,0.8,0.2,1.2
			c0,0.4-0.4,0.7-0.5,1.1c-0.3-0.2-0.8-0.3-0.9-0.6c-0.4-0.9-0.9-0.6-1.3-0.1c-0.7,0.7-1.2,0.6-1.3-0.4c-0.1-0.5-0.4-0.4-0.7-0.2
			c-0.3,0.3-0.8,0.6-0.7,0.9c0.3,1.8-1,2.3-2.3,2.9c-1.2,0.6-2.3,1.4-3.6,1.9c-0.7,0.3-1.8,0.2-2.4,0.6
			C561.5,899.8,561.5,898.7,560.9,898.6L560.9,898.6z"/>
		<path class="st0" d="M532.8,734.2c-1.1,0.8-2.1,1.6-3.3,2.2c-1.7,0.9-3.5,1.1-5.2-0.3c-1-0.8-2.1-1.4-3-2.2
			c-1.9-1.5-2.2-2.1-2.7-4.4c-0.3-1.4-0.4-2.8-0.5-4.2c0-0.1,0.3-0.3,0.5-0.4c0.1,0,0.3,0.1,0.4,0.3c0.4,1,0.9,2,1,3.1
			c0.1,1.2,0.7,1.7,1.7,2.2c1,0.5,1.8,1.5,2.9,1.8c0.9,0.3,1.8,1.7,3.1,0.3c0.3-0.3,1.3-0.3,1.7,0c1.1,0.7,2.2,1.2,3.6,0.9
			C532.8,733.8,532.8,734,532.8,734.2z"/>
		<path class="st0" d="M560.9,898.6c-0.1,0.5-0.1,1.2-0.3,1.4c-1.5,0.7-3.1,1.3-4.6,1.9c-0.3,0.1-0.8,0.3-0.9,0.1
			c-1-1.1-1.8-0.2-2.7,0.1c-1.3,0.5-2.8,0.7-4.2,0.6c-0.9-0.1-1.4-0.7-0.8-1.3c1.1-1.1,0.7-2.4,0.9-3.6c1.2,0.2,0.9,1.1,1.1,1.8
			c0.1,0.2,0.3,0.3,0.5,0.5c0-0.2,0.1-0.4,0.1-0.6c0.1-0.9,0.5-1.2,1.2-0.6c0.4,0.3,0.5,0.9,1.2,0.5c0.4-0.3,1.1-0.8,1.2-0.6
			c0.5,0.4,0.8,1,1.1,1.6c0.2-1,0.5-2,0.8-3.2c0.5,0.3,0.7,0.6,1,0.7c0.6,0.3,1.1,0.5,1.5-0.2c0.3-0.5,0.6-1.2,1.3-0.8
			c0.6,0.2,1.3,0.4,1.3,1.3C560.5,898.2,560.8,898.4,560.9,898.6C560.9,898.6,560.9,898.6,560.9,898.6z"/>
		<path class="st0" d="M599.1,888.2c2.7-0.9,5.3-1.6,7.8-2.4c0.5-0.2,1-0.3,1.4-0.6c1.1-1.2,2.8-1.3,4.1-2.3c0.6-0.5,1.4-1,2.3-0.4
			c0.1,0.1,0.4-0.1,0.6-0.2c0.2-0.1,0.4-0.2,0.6-0.3c0,0.4,0.2,0.8,0.1,1.2c-0.1,0.2-0.6,0.6-0.7,0.5c-1.4-0.9-2.1,0.3-3,0.9
			c-1.5,1.1-3.1,2-4.6,3c-0.2,0.1-0.5,0.2-0.7,0.1c-1.7-0.8-2.7,0.2-3.5,1.4c-0.3,0.5-0.8,0.5-1.2,0.8c-1,0.6-1.5,0.4-2-0.6
			C600,889,599.6,888.7,599.1,888.2z"/>
		<path class="st0" d="M517,715.7c-0.1,1.2-0.2,1.9-0.3,2.5c0,0.3-0.2,0.6-0.3,0.8c-0.3-0.1-0.6-0.2-0.8-0.4
			c-1.1-1.4-1.5-3.1-2.1-4.8c-0.1-0.3,0-0.8,0.2-1.2c0.2-0.3,0.5-0.8,0.7-0.9c0.3,0,0.8,0.4,0.9,0.7
			C516,713.6,516.6,714.9,517,715.7z"/>
		<path class="st0" d="M332.8,434.7c-0.2,0.1-0.5,0.2-0.7,0.2c-0.2,0-0.5-0.2-0.5-0.2c0-0.3,0.1-0.8,0.3-0.9
			c0.5-0.2,1.1-0.3,1.7-0.4c1.5-0.2,2.6-0.9,3.6-2.1c0.2-0.3,0.5-0.5,0.7-0.7c0.4-0.3,0.6-1.2,1.4-0.8c0.6,0.3,0.6,1.1,0,2
			c-0.8,1.2-2,1.8-3.2,2.2c-1,0.3-2.1,0.5-3.2,0.7C332.9,434.7,332.8,434.7,332.8,434.7z"/>
		<path class="st0" d="M625.4,878.5c-0.3,0.3-0.5,0.9-0.9,1c-1.3,0.4-2.6,0.7-3.9,0.9c-0.2,0-0.5-0.2-0.6-0.3
			c-0.1-0.1,0-0.5,0.2-0.6c0.9-0.8,1.9-1.7,2.9-2.4c0.4-0.3,1.2-0.6,1.3-0.4C624.8,877.2,625,877.8,625.4,878.5z"/>
		<path class="st0" d="M635,850.5c0.2-0.2,0.3-0.3,0.5-0.5c0.9,0.3,1.1,1,1,1.8c0,1.5,0,3,0,4.6c-0.9-0.1-1.5-0.2-1.6-1.2
			c0-0.6-0.3-1.1-0.3-1.7c0-0.3,0-0.7,0.2-0.8C636.2,852,635.2,851.2,635,850.5z"/>
		<path class="st0" d="M478.3,629.1c0.8-0.2,1.5-0.4,2.8-0.8c-0.7,0.9-1,1.4-1.4,1.8c-0.6,0.4-1.3,1-1.9,0.9
			c-0.8-0.1-0.6-1.1-0.6-1.7c0-0.2,0-0.5-0.1-0.7c-0.1-0.4-0.6-0.9,0.1-1.2c0.4-0.1,0.8,0,1.2,0c0,0.4-0.1,0.9-0.1,1.3
			C478.3,628.8,478.3,628.9,478.3,629.1z"/>
		<path class="st0" d="M526.2,899.9c0,0.2,0.1,0.5-0.1,0.7c-0.3,0.4-0.6,1-0.9,1c-0.7,0-0.6-0.7-0.4-1.1c0.4-0.8-0.1-1.1-0.7-1.2
			c-0.2,0-0.3,0-0.5,0c-0.5-0.1-1.4,0.3-1.4-0.6c0-0.8,0.8-0.9,1.5-0.9C525.3,897.5,526.2,898.3,526.2,899.9z"/>
		<path class="st0" d="M628.3,876.6c-0.3-0.2-0.5-0.3-0.6-0.5c-0.1-0.1-0.1-0.3,0-0.4c0.4-0.4,0.8-0.9,1.3-1.1
			c1-0.4,1.9-0.9,2.7-1.6c0.1-0.1,0.4-0.1,0.6-0.1c0,0.2,0.2,0.5,0.1,0.7c-0.2,0.4-0.4,0.8-0.7,1
			C630.6,875.2,629.5,875.9,628.3,876.6z"/>
		<path class="st0" d="M517.7,724.2c-0.5-0.9-1.1-1.7-1.5-2.6c-0.2-0.4,0-1,0.2-1.4c0.2-0.5,0.9-0.5,1.1,0
			C517.9,721.5,518.7,722.8,517.7,724.2z"/>
		<path class="st0" d="M584.1,884.3c1,1.3,3,1.7,2.3,3.7C583.9,886.7,583.9,886.7,584.1,884.3z"/>
		<path class="st0" d="M470,581c-1.6-1.3-1-2.9-1.4-4.4c0-0.1,0.2-0.4,0.3-0.3c0.2,0.1,0.6,0.2,0.6,0.3
			C469.6,578.1,469.8,579.6,470,581z"/>
		<path class="st0" d="M476,634.3c-2.1-0.9-1.2-2.3-0.8-3.6C476.2,631.5,476.2,631.5,476,634.3z"/>
		<path class="st0" d="M588.3,893.3c-0.2-0.2-0.4-0.3-0.5-0.5c-0.1-0.2-0.1-0.6,0-0.7c0.5-0.4,1-0.9,1.7-1.1c0.2-0.1,0.7,0.3,1,0.6
			c0.1,0.1-0.1,0.6-0.3,0.8C589.5,892.7,588.9,893,588.3,893.3z"/>
	</g>
</g>
</svg>
