<?xml version="1.0" encoding="iso-8859-1"?>
<!-- Uploaded to: SVG Repo, www.svgrepo.com, Generator: SVG Repo Mixer Tools -->
<svg fill="#000000" height="800px" width="800px" version="1.1" id="Layer_1" xmlns="http://www.w3.org/2000/svg" xmlns:xlink="http://www.w3.org/1999/xlink" 
	 viewBox="0 0 512 512" xml:space="preserve">
<g>
	<g>
		<path d="M256,0C114.848,0,0,114.848,0,256s114.848,256,256,256s256-114.848,256-256S397.152,0,256,0z M256,490.667
			C126.603,490.667,21.333,385.397,21.333,256S126.603,21.333,256,21.333S490.667,126.603,490.667,256S385.397,490.667,256,490.667z
			"/>
	</g>
</g>
<g>
	<g>
		<path d="M370.133,76.064c-5.074-2.893-11.531-1.167-14.485,3.872l-66.187,112.939c-2.988,5.077-1.295,11.615,3.781,14.603
			c0.03,0.018,0.06,0.035,0.091,0.053c12.139,6.869,22.4,29.109,22.4,48.469c0,5.891,4.776,10.667,10.667,10.667h132.267
			c5.891,0,10.667-4.776,10.667-10.667C469.333,184.533,427.616,108.8,370.133,76.064z M336.277,245.333
			c-2.379-17.792-10.443-37.643-23.605-49.867l55.84-95.275c43.221,29.568,75.445,88.715,79.136,145.141H336.277z"/>
	</g>
</g>
<g>
	<g>
		<path d="M361.6,428.885l-56.533-113.632c-2.622-5.275-9.024-7.426-14.3-4.804c-0.153,0.076-0.304,0.155-0.452,0.239
			C283.595,314.443,264.352,320,256,320s-27.595-5.557-34.336-9.312c-5.149-2.863-11.643-1.01-14.506,4.139
			c-0.078,0.14-0.153,0.283-0.225,0.426L150.4,428.885c-2.532,5.097-0.617,11.284,4.352,14.059
			c62.884,35.183,139.527,35.183,202.411,0C362.163,440.198,364.118,434.004,361.6,428.885z M174.197,429.035l47.317-95.221
			c10.923,4.011,25.376,7.52,34.485,7.52s23.563-3.509,34.485-7.52l47.317,95.221C286.933,453.92,225.067,453.909,174.197,429.035z"
			/>
	</g>
</g>
<g>
	<g>
		<path d="M222.599,192.979c-0.02-0.035-0.04-0.07-0.06-0.104L156.331,79.936c-2.953-5.026-9.395-6.751-14.464-3.872
			C84.373,108.8,42.667,184.533,42.667,256c0,5.891,4.776,10.667,10.667,10.667h132.32c5.891,0,10.667-4.776,10.667-10.667
			c0-19.36,10.219-41.6,22.304-48.469C223.74,204.61,225.52,198.095,222.599,192.979z M175.733,245.333H64.352
			c3.68-56.416,35.915-115.563,79.125-145.131l55.851,95.275C186.176,207.701,178.133,227.541,175.733,245.333z"/>
	</g>
</g>
<g>
	<g>
		<circle cx="256" cy="256" r="32"/>
	</g>
</g>
</svg>